<?xml version="1.0" encoding="UTF-8"?>
<svg id="Camada_1" xmlns="http://www.w3.org/2000/svg" xmlns:xlink="http://www.w3.org/1999/xlink" viewBox="0 0 954.58 130.11">
  <defs>
    <style>
      .cls-1 {
        fill: none;
      }

      .cls-2 {
        fill: #4a4a4a;
      }

      .cls-3 {
        clip-path: url(#clippath);
      }
    </style>
    <clipPath id="clippath">
      <rect class="cls-1" width="954.58" height="130.11"/>
    </clipPath>
  </defs>
  <g class="cls-3">
    <path class="cls-2" d="M521.6,74.48c0,32.53-24.4,54.35-61.19,54.35s-61-21.81-61-54.35V4.22c0-.6.49-1.09,1.09-1.09h43.29c.6,0,1.09.49,1.09,1.09v71.2c0,11.08,10.74,19.36,21.29,15.95,6.14-1.99,9.95-7.28,9.95-14.48V4.22c0-.6.49-1.09,1.09-1.09h43.29c.6,0,1.09.49,1.09,1.09v70.26Z"/>
    <path class="cls-2" d="M631.21,63.02c12.02,3.33,18.11,11.46,18.11,24.58,0,26.25-17.01,39.37-51.2,39.37h-63.42c-.6,0-1.09-.49-1.09-1.09V4.22c0-.6.49-1.09,1.09-1.09h61.76c32.72,0,48.98,11.46,48.98,34.38,0,12.01-4.81,20.33-14.23,24.77v.74ZM594.98,52.11c4.81,0,7.21-2.4,7.21-7.39s-2.4-7.39-7.02-7.39h-14.99c-.6,0-1.09.49-1.09,1.09v12.61c0,.6.49,1.09,1.09,1.09h14.81ZM596.46,93.52c4.62,0,7.02-2.4,7.02-7.39s-2.22-7.39-6.84-7.39h-16.47c-.6,0-1.09.49-1.09,1.09v12.61c0,.6.49,1.09,1.09,1.09h16.29Z"/>
    <path class="cls-2" d="M701.1,126.98h-43.29c-.6,0-1.09-.49-1.09-1.09V4.22c0-.6.49-1.09,1.09-1.09h43.29c.6,0,1.09.49,1.09,1.09v121.67c0,.6-.49,1.09-1.09,1.09"/>
    <path class="cls-2" d="M953.49,3.13h-48.99c-.43,0-.83.26-1,.66l-18.94,43.52h-.55l-18.76-43.52c-.17-.4-.57-.66-1-.66h-148.03c-.6,0-1.09.49-1.09,1.09v121.67c0,.6.49,1.09,1.09,1.09h43.29c.6,0,1.09-.49,1.09-1.09v-42.19c0-.6.49-1.09,1.09-1.09h38.12c.6,0,1.09-.49,1.09-1.09v-32.2c0-.6-.49-1.09-1.09-1.09h-38.12c-.6,0-1.09-.49-1.09-1.09v-6.51c0-.6.49-1.09,1.09-1.09h72.37l27.44,48.36c.09.16.14.35.14.54v37.44c0,.6.49,1.09,1.09,1.09h43.29c.6,0,1.09-.49,1.09-1.09v-37.44c0-.19.05-.37.14-.54l47.18-83.15c.41-.73-.11-1.63-.95-1.63"/>
    <path class="cls-2" d="M102.67,62.92v-.78c9.9-4.66,14.95-13.4,14.95-26.02C117.63,12.04,100.54,0,66.17,0h-10.63C21.17,0,4.08,12.04,4.08,36.12c0,12.62,5.05,21.36,14.95,26.02v.78C6.41,66.41,0,74.96,0,88.74c0,27.58,17.87,41.36,53.79,41.36h14.12c35.93,0,53.79-13.79,53.79-41.36,0-13.79-6.41-22.33-19.03-25.83M56.9,35.93h7.91c4.85,0,7.38,2.52,7.38,7.77s-2.52,7.77-7.57,7.77h-7.52c-5.05,0-7.57-2.53-7.57-7.77s2.52-7.77,7.38-7.77M66.17,94.96h-10.63c-4.85,0-7.38-2.52-7.38-7.77s2.33-7.77,7.18-7.77h11.02c4.86,0,7.19,2.53,7.19,7.77s-2.52,7.77-7.38,7.77"/>
    <path class="cls-2" d="M384.99,2.77h-43.54c-.61,0-1.1.49-1.1,1.1v42.06c0,.61-.49,1.1-1.1,1.1h-28.3c-.61,0-1.1-.49-1.1-1.1V3.87c0-.61-.49-1.1-1.1-1.1h-43.54c-.61,0-1.1.49-1.1,1.1v77.11c11.2,3.41,19.37,13.83,19.37,26.13v2.41c0,6.8-2.5,13.02-6.63,17.81h31.9c.61,0,1.1-.49,1.1-1.1v-41.87c0-.6.49-1.1,1.1-1.1h28.3c.61,0,1.1.49,1.1,1.1v41.87c0,.6.49,1.1,1.1,1.1h43.54c.6,0,1.1-.49,1.1-1.1V3.87c0-.61-.49-1.1-1.1-1.1"/>
    <path class="cls-2" d="M199.13,85.2c-3.14,3.88-8.32,5.73-15.53,5.73h-5.75c-.6,0-1.09-.49-1.09-1.09v-48.84c0-.6.49-1.09,1.09-1.09h5.75c7.21,0,12.38,1.85,15.53,5.55,3.14,3.88,4.81,10.54,4.81,19.59s-1.66,16.08-4.81,20.15M217.01,108.58c-3.81-4.67-6.01-10.6-6.01-16.83,0-1.26.09-2.54.27-3.8.67-4.65,4.71-8.15,9.4-8.15h28.51c.76-4.59,1.15-9.49,1.15-14.74,0-20.15-5.92-35.68-17.75-46.4-11.46-10.35-27.73-15.53-48.8-15.53h-51.41c-.6,0-1.09.49-1.09,1.09v121.67c0,.6.49,1.09,1.09,1.09h48.26c11.6,0,21.75-1.31,30.45-3.9.48-5.37,2.58-10.42,5.91-14.5"/>
    <path class="cls-2" d="M267.68,108.82c-6.45,1.42-11.47,6.66-12.57,13.22-.02.09-.13.09-.15,0-1.1-6.57-6.12-11.81-12.57-13.22-.09-.02-.09-.13,0-.15,6.45-1.42,11.47-6.65,12.57-13.22.01-.09.13-.09.15,0,1.1,6.57,6.12,11.81,12.57,13.22.09.02.09.13,0,.15M256.18,87.8h-35.51c-.75,0-1.38.55-1.49,1.29-.13.88-.19,1.78-.19,2.66,0,7.36,4.28,13.83,10.67,16.83-6.39,3-10.67,9.47-10.67,16.83,0,.69.04,1.4.12,2.1.09.76.73,1.33,1.49,1.33h35.58c10.65,0,19.31-8.66,19.31-19.31v-2.41c0-10.65-8.66-19.32-19.31-19.32"/>
  </g>
</svg>