<?xml version="1.0" encoding="UTF-8"?>
<svg id="Camada_1" xmlns="http://www.w3.org/2000/svg" viewBox="0 0 678.62 267.56">
  <defs>
    <style>
      .cls-1 {
        fill: #fff;
      }
    </style>
  </defs>
  <path class="cls-1" d="M253.07,214.15c0,31.98-23.98,53.41-60.14,53.41s-59.95-21.44-59.95-53.41v-69.06c0-.59.48-1.07,1.07-1.07h42.55c.59,0,1.07.48,1.07,1.07v69.98c0,10.9,10.56,19.03,20.92,15.67,6.04-1.95,9.78-7.16,9.78-14.23v-71.42c0-.59.48-1.07,1.07-1.07h42.55c.59,0,1.07.48,1.07,1.07v69.06Z"/>
  <path class="cls-1" d="M326.65,232.86c4.54,0,6.9-2.36,6.9-7.27s-2.18-7.27-6.72-7.27h-16.19c-.59,0-1.07.48-1.07,1.07v12.39c0,.59.48,1.07,1.07,1.07h16.01ZM325.19,192.17c4.72,0,7.09-2.36,7.09-7.27s-2.36-7.27-6.9-7.27h-14.74c-.59,0-1.07.48-1.07,1.07v12.39c0,.59.48,1.07,1.07,1.07h14.55ZM360.8,202.89c11.81,3.27,17.8,11.26,17.8,24.16,0,25.8-16.71,38.7-50.33,38.7h-62.33c-.59,0-1.07-.48-1.07-1.07v-119.58c0-.59.48-1.07,1.07-1.07h60.7c32.16,0,48.14,11.26,48.14,33.79,0,11.81-4.72,19.99-13.99,24.35v.73Z"/>
  <path class="cls-1" d="M429.49,265.75h-42.55c-.59,0-1.07-.48-1.07-1.07v-119.58c0-.59.48-1.07,1.07-1.07h42.55c.59,0,1.07.48,1.07,1.07v119.58c0,.59-.48,1.07-1.07,1.07"/>
  <path class="cls-1" d="M677.55,144.02h-48.15c-.43,0-.81.25-.98.64l-18.61,42.78h-.54l-18.43-42.77c-.17-.39-.56-.65-.98-.65h-145.49c-.59,0-1.07.48-1.07,1.07v119.58c0,.59.48,1.07,1.07,1.07h42.55c.59,0,1.07-.48,1.07-1.07v-41.46c0-.59.48-1.07,1.07-1.07h37.46c.59,0,1.07-.48,1.07-1.07v-31.65c0-.59-.48-1.07-1.07-1.07h-37.46c-.59,0-1.07-.48-1.07-1.07v-6.4c0-.59.48-1.07,1.07-1.07h71.12l26.97,47.54c.09.16.14.34.14.53v36.8c0,.59.48,1.07,1.07,1.07h42.55c.59,0,1.07-.48,1.07-1.07v-36.8c0-.19.05-.37.14-.53l46.37-81.73c.41-.71-.11-1.6-.93-1.6"/>
  <path class="cls-1" d="M118.8,266.1h-42.8c-.6,0-1.08-.48-1.08-1.08v-41.15c0-.6-.48-1.08-1.08-1.08h-27.81c-.6,0-1.08.48-1.08,1.08v41.15c0,.59-.48,1.08-1.08,1.08H1.08C.48,266.1,0,265.62,0,265.02v-120.28c0-.6.48-1.08,1.08-1.08h42.8c.6,0,1.08.48,1.08,1.08v41.34c0,.6.48,1.08,1.08,1.08h27.81c.6,0,1.08-.48,1.08-1.08v-41.34c0-.6.48-1.08,1.08-1.08h42.8c.59,0,1.08.48,1.08,1.08v120.28c0,.59-.48,1.08-1.08,1.08"/>
  <path class="cls-1" d="M65.03,93.33h-10.45c-4.77,0-7.25-2.48-7.25-7.63s2.29-7.63,7.06-7.63h10.83c4.77,0,7.06,2.48,7.06,7.63s-2.48,7.63-7.25,7.63M55.92,35.31h7.77c4.77,0,7.25,2.48,7.25,7.63s-2.48,7.63-7.44,7.63h-7.39c-4.96,0-7.44-2.48-7.44-7.63s2.48-7.63,7.25-7.63M100.91,61.84v-.76c9.73-4.58,14.7-13.17,14.7-25.58C115.61,11.83,98.81,0,65.03,0h-10.45C20.8,0,4.01,11.83,4.01,35.5c0,12.41,4.96,20.99,14.7,25.58v.76C6.3,65.27,0,73.67,0,87.22c0,27.1,17.56,40.65,52.87,40.65h13.88c35.31,0,52.87-13.55,52.87-40.65,0-13.55-6.3-21.95-18.7-25.38"/>
  <path class="cls-1" d="M215.02,106.72c-3.95-4.42-6.3-10.23-6.3-16.54,0-1.18.08-2.37.25-3.54.56-3.94,3.94-6.87,7.92-6.87h27.79c.9-4.88,1.36-10.15,1.36-15.83,0-19.8-5.81-35.06-17.44-45.6-11.26-10.17-27.25-15.26-47.96-15.26h-50.53c-.59,0-1.07.48-1.07,1.07v119.58c0,.59.48,1.07,1.07,1.07h47.44c12.03,0,22.46-1.43,31.33-4.26.57-5.25,2.77-10.05,6.14-13.82ZM195.71,83.74c-3.09,3.82-8.18,5.63-15.26,5.63h-5.65c-.59,0-1.07-.48-1.07-1.07v-48c0-.59.48-1.07,1.07-1.07h5.65c7.08,0,12.17,1.82,15.26,5.45,3.09,3.82,4.72,10.36,4.72,19.26s-1.64,15.81-4.72,19.8Z"/>
  <path class="cls-1" d="M251.78,87.77h-1.62s0,.06-.01.08c0-.03,0-.06-.01-.08h-33.26c-.11.79-.17,1.59-.17,2.41,0,8.27,5.98,15.15,13.85,16.54-7.87,1.39-13.85,8.27-13.85,16.54,0,.64.04,1.27.11,1.89h34.97c9.67,0,17.51-7.84,17.51-17.51v-2.37c0-9.67-7.84-17.51-17.51-17.51ZM250.15,120.93c-1-7.21-6.57-12.95-13.69-14.21,7.12-1.26,12.69-7,13.69-14.21,1,7.21,6.57,12.95,13.69,14.21-7.12,1.26-12.69,7-13.69,14.21Z"/>
</svg>