<?xml version="1.0" encoding="UTF-8"?>
<svg id="Camada_1" xmlns="http://www.w3.org/2000/svg" viewBox="0 0 945 128.8">
  <defs>
    <style>
      .cls-1 {
        fill: #003;
      }

      .cls-2 {
        fill: #fff;
      }

      .cls-3 {
        fill: #63f;
      }
    </style>
  </defs>
  <path class="cls-1" d="M516.37,73.73c0,32.21-24.16,53.8-60.57,53.8s-60.39-21.59-60.39-53.8V4.18c0-.6.48-1.08,1.08-1.08h42.86c.6,0,1.08.48,1.08,1.08v70.48c0,10.97,10.63,19.17,21.07,15.79,6.08-1.97,9.85-7.21,9.85-14.34V4.18c0-.6.48-1.08,1.08-1.08h42.86c.6,0,1.08.48,1.08,1.08v69.56Z"/>
  <path class="cls-1" d="M590.48,92.58c4.57,0,6.95-2.38,6.95-7.32s-2.2-7.32-6.77-7.32h-16.3c-.6,0-1.08.48-1.08,1.08v12.48c0,.6.48,1.08,1.08,1.08h16.12ZM589.01,51.59c4.76,0,7.14-2.38,7.14-7.32s-2.38-7.32-6.95-7.32h-14.84c-.6,0-1.08.48-1.08,1.08v12.48c0,.6.48,1.08,1.08,1.08h14.66ZM624.88,62.39c11.89,3.29,17.93,11.35,17.93,24.34,0,25.99-16.84,38.98-50.69,38.98h-62.79c-.6,0-1.08-.48-1.08-1.08V4.18c0-.6.48-1.08,1.08-1.08h61.14c32.39,0,48.49,11.35,48.49,34.04,0,11.89-4.76,20.13-14.09,24.52v.73Z"/>
  <path class="cls-1" d="M694.07,125.7h-42.86c-.6,0-1.08-.48-1.08-1.08V4.18c0-.6.48-1.08,1.08-1.08h42.86c.6,0,1.08.48,1.08,1.08v120.45c0,.6-.48,1.08-1.08,1.08"/>
  <path class="cls-1" d="M943.92,3.1h-48.5c-.43,0-.82.25-.99.65l-18.75,43.09h-.55l-18.57-43.08c-.17-.4-.56-.65-.99-.65h-146.55c-.6,0-1.08.48-1.08,1.08v120.45c0,.6.48,1.08,1.08,1.08h42.86c.6,0,1.08-.48,1.08-1.08v-41.76c0-.6.48-1.08,1.08-1.08h37.74c.6,0,1.08-.48,1.08-1.08v-31.88c0-.6-.48-1.08-1.08-1.08h-37.74c-.6,0-1.08-.48-1.08-1.08v-6.44c0-.6.48-1.08,1.08-1.08h71.64l27.17,47.88c.09.16.14.35.14.53v37.07c0,.6.48,1.08,1.08,1.08h42.86c.6,0,1.08-.48,1.08-1.08v-37.07c0-.19.05-.37.14-.53l46.71-82.32c.41-.72-.11-1.61-.94-1.61"/>
  <path class="cls-1" d="M381.12,126.06h-43.11c-.6,0-1.09-.49-1.09-1.08v-41.45c0-.6-.49-1.09-1.08-1.09h-28.01c-.6,0-1.09.49-1.09,1.09v41.45c0,.6-.49,1.08-1.08,1.08h-43.11c-.6,0-1.08-.49-1.08-1.08V3.83c0-.6.49-1.08,1.08-1.08h43.11c.6,0,1.08.49,1.08,1.08v41.64c0,.6.49,1.08,1.09,1.08h28.01c.6,0,1.08-.49,1.08-1.08V3.83c0-.6.49-1.08,1.09-1.08h43.11c.6,0,1.08.49,1.08,1.08v121.15c0,.6-.48,1.08-1.08,1.08"/>
  <path class="cls-1" d="M181.76,90.02c7.14,0,12.26-1.83,15.37-5.67,3.11-4.03,4.76-10.61,4.76-19.95s-1.65-15.55-4.76-19.4c-3.11-3.66-8.23-5.49-15.37-5.49h-5.69c-.6,0-1.08.48-1.08,1.08v48.35c0,.6.48,1.08,1.08,1.08h5.69ZM129.97,124.62V4.18c0-.6.48-1.08,1.08-1.08h50.89c20.86,0,36.97,5.12,48.31,15.37,11.71,10.61,17.57,25.99,17.57,45.93,0,40.81-23.06,61.3-68.99,61.3h-47.78c-.6,0-1.08-.48-1.08-1.08"/>
  <path class="cls-1" d="M65.5,94.01h-10.52c-4.81,0-7.31-2.5-7.31-7.69s2.31-7.69,7.11-7.69h10.91c4.81,0,7.11,2.5,7.11,7.69s-2.5,7.69-7.31,7.69M56.33,35.56h7.83c4.81,0,7.31,2.5,7.31,7.69s-2.5,7.69-7.5,7.69h-7.44c-5,0-7.5-2.5-7.5-7.69s2.5-7.69,7.31-7.69M101.64,62.29v-.77c9.8-4.62,14.8-13.27,14.8-25.76C116.45,11.92,99.53,0,65.5,0h-10.52C20.95,0,4.04,11.92,4.04,35.76c0,12.5,5,21.15,14.8,25.76v.77C6.34,65.75,0,74.2,0,87.85c0,27.3,17.69,40.95,53.25,40.95h13.98c35.57,0,53.25-13.65,53.25-40.95,0-13.65-6.34-22.11-18.84-25.57"/>
  <path class="cls-3" d="M251.96,121.8c-1.01-7.26-6.62-13.04-13.79-14.31,7.17-1.27,12.78-7.05,13.79-14.31,1.01,7.26,6.62,13.04,13.79,14.31-7.17,1.27-12.78,7.05-13.79,14.31M253.61,88.4h-1.63s0,.06-.01.09c0-.03,0-.06-.01-.09h-33.5c-.11.79-.17,1.6-.17,2.43,0,8.33,6.02,15.26,13.95,16.66-7.93,1.4-13.95,8.33-13.95,16.66,0,.65.04,1.28.11,1.91h35.22c9.74,0,17.63-7.9,17.63-17.64v-2.39c0-9.74-7.9-17.64-17.63-17.64"/>
  <path class="cls-2" d="M251.96,121.8c-1.01-7.26-6.62-13.04-13.79-14.31,7.17-1.27,12.78-7.05,13.79-14.31,1.01,7.26,6.62,13.04,13.79,14.31-7.17,1.27-12.78,7.05-13.79,14.31"/>
</svg>