<?xml version="1.0" encoding="UTF-8"?>
<svg id="Camada_1" xmlns="http://www.w3.org/2000/svg" xmlns:xlink="http://www.w3.org/1999/xlink" viewBox="0 0 469.28 333.7">
  <defs>
    <style>
      .cls-1 {
        fill: none;
      }

      .cls-2 {
        fill: #4a4a4a;
      }

      .cls-3 {
        clip-path: url(#clippath);
      }
    </style>
    <clipPath id="clippath">
      <rect class="cls-1" x="0" width="469.28" height="333.7"/>
    </clipPath>
  </defs>
  <g class="cls-3">
    <path class="cls-2" d="M298.45,295.98c-8.94-64.31-58.65-115.58-122.2-126.82,63.55-11.25,113.26-62.51,122.2-126.82,8.94,64.31,58.65,115.58,122.2,126.82-63.54,11.25-113.26,62.51-122.2,126.82M313.01,0h-14.46c-.03.25-.06.51-.09.76-.03-.25-.06-.51-.1-.76H1.54C.53,7.02,0,14.2,0,21.51c0,73.84,53.37,135.21,123.64,147.65C53.37,181.59,0,242.96,0,316.8c0,5.71.33,11.35.95,16.9h312.08c86.3-.01,156.25-69.97,156.25-156.28v-21.15C469.28,69.97,399.32,0,313.01,0"/>
  </g>
</svg>